<svg width="22" height="22" viewBox="0 0 22 22" fill="none" xmlns="http://www.w3.org/2000/svg">
<g clip-path="url(#clip0_9_1365)">
<path d="M5.30982 11.6037L15.4855 21.7512C15.8189 22.0835 16.3586 22.0829 16.6915 21.7495C17.024 21.4161 17.0232 20.876 16.6897 20.5435L7.11979 11L16.6901 1.45648C17.0235 1.1239 17.0243 0.584175 16.6918 0.250738C16.525 0.0835914 16.3064 1.52193e-05 16.0878 1.52002e-05C15.8698 1.51811e-05 15.6521 0.0830325 15.4855 0.24902L5.30982 10.3963C5.14925 10.556 5.05914 10.7734 5.05914 11C5.05914 11.2265 5.14951 11.4437 5.30982 11.6037Z" fill="white"/>
</g>
<defs>
<clipPath id="clip0_9_1365">
<rect width="22" height="22" fill="white" transform="translate(22 22) rotate(-180)"/>
</clipPath>
</defs>
</svg>
